<svg 
    xmlns="http://www.w3.org/2000/svg" 
    xmlns:xlink="http://www.w3.org/1999/xlink" 
    version="1.1" 
    viewBox="0 0 1500 1500">

 <style>
  a:hover path, a:active path{ fill: rgba(0, 0, 0, 0.5);}
 </style>

 <a xlink:href="bedroom.html">
  <path d="M125,220 372,220 372,521 125,521 125,220" stroke="#999" stroke-width="1" fill="transparent"/>
 </a>
 <a xlink:href="ensuite.html">
  <path d="M125,531 372,531 372,642 125,642 124,531" stroke="#999" stroke-width="1" fill="transparent"/>
 </a>
 <a xlink:href="study.html">
  <path d="M125,652 372,652 372,1073 125,1073 125,652" stroke="#999" stroke-width="1" fill="transparent"/>
 </a>
 <a xlink:href="livingroom.html">
  <path d="M382,851 1054,851 1054,1344 382,1344 382,1179 125,1179 125,1083, 382,1083 382,851" stroke="#999" stroke-width="1" fill="transparent"/>
 </a>
 <a xlink:href="staircase.html">
  <path d="M382,652 674,652 674,841 382,841 382,652" stroke="#999" stroke-width="1" fill="transparent"/>
 </a>
 <a xlink:href="diningarea.html">
  <path d="M382,444 870,444  870,324  955,324 955,150 1064,150 1064,543 1054,543 1054,841 684,841 684,642 382,642 382,444" stroke="#999" stroke-width="1" fill="transparent"/>
 </a>
 <a xlink:href="patio.html">
  <path d="M382,142 945,142 945,314 860,314 860,434 382,434 382,142" stroke="#999" stroke-width="1" fill="transparent"/>
 </a>
 <a xlink:href="kitchen.html">
  <path d="M1074,150 1350,150 1350,314 1074,314 1074,150" stroke="#999" stroke-width="1" fill="transparent"/>
 </a>
 <a xlink:href="utility.html">
  <path d="M1074,324 1350,324 1350,543 1074,543 1074,324" stroke="#999" stroke-width="1" fill="transparent"/>
 </a>
 <a xlink:href="wc.html">
  <path d="M1064,553 1392,553 1392,689 1064,689 1064,553" stroke="#999" stroke-width="1" fill="transparent"/>
 </a>
 <a xlink:href="washroom.html">
  <path d="M1064,699 1392,699 1392,841 1064,841 1064,699" stroke="#999" stroke-width="1" fill="transparent"/>
 </a>

</svg>